<svg id="Capa_1" enable-background="new 0 0 512 512" height="512" viewBox="0 0 512 512" width="512" xmlns="http://www.w3.org/2000/svg"><g><g><circle cx="256" cy="256" fill="#cbe2ff" r="248.481"/></g><g><path d="m399.974 53.458c28.925 40.619 45.939 90.309 45.939 143.974 0 137.232-111.249 248.481-248.481 248.481-53.665 0-103.355-17.014-143.974-45.939 45.043 63.252 118.974 104.507 202.542 104.507 137.232 0 248.481-111.249 248.481-248.481 0-83.568-41.254-157.499-104.507-202.542z" fill="#bed8fb"/></g><path d="m437.02 74.98c-48.353-48.352-112.64-74.98-181.02-74.98s-132.667 26.628-181.019 74.98-74.981 112.64-74.981 181.02 26.628 132.667 74.98 181.019c48.353 48.352 112.64 74.981 181.02 74.981s132.667-26.629 181.02-74.981c48.351-48.352 74.98-112.64 74.98-181.019s-26.629-132.668-74.98-181.02zm59.813 173.501h-90.805c-1.082-64.855-16.139-125.658-42.688-171.926-12.859-22.41-27.737-40.246-43.975-53.046 99.906 27.259 174.152 117.335 177.468 224.972zm-240.833 119.926c-4.153 0-7.519 3.366-7.519 7.519v120.65c-32.494-3.225-63.068-27.293-86.78-68.615-26.286-45.811-40.762-106.882-40.762-171.961s14.476-126.149 40.763-171.961c23.711-41.322 54.286-65.389 86.78-68.615v119.006c0 4.153 3.366 7.519 7.519 7.519s7.519-3.366 7.519-7.519v-119.006c32.494 3.226 63.068 27.292 86.779 68.615 26.285 45.811 40.762 106.881 40.762 171.961s-14.477 126.149-40.764 171.961c-23.71 41.322-54.285 65.39-86.779 68.615v-120.65c.001-4.153-3.365-7.519-7.518-7.519zm-63.361-344.899c-16.24 12.801-31.119 30.636-43.979 53.048-26.549 46.268-41.607 107.071-42.688 171.926-.003 0-.006 0-.01 0h-90.795c3.316-107.64 77.564-197.717 177.472-224.974zm-177.472 240.01h90.795.01c1.082 64.855 16.139 125.658 42.688 171.927 12.857 22.406 27.731 40.244 43.967 53.044-99.901-27.262-174.144-117.336-177.46-224.971zm304.16 224.984c16.251-12.802 31.146-30.632 44.014-53.057 26.549-46.269 41.606-107.072 42.688-171.927h90.805c-3.318 107.651-77.583 197.737-177.507 224.984z" fill="#80b4fb"/><g><path d="m370.79 380.655h-229.58c-33.847 0-61.286-27.439-61.286-61.286v-128.382c0-33.847 27.439-61.286 61.286-61.286h229.58c33.847 0 61.286 27.439 61.286 61.286v128.382c0 33.847-27.439 61.286-61.286 61.286z" fill="#f4fbff"/></g><g><path d="m399.047 136.668c4.441 8.498 6.966 18.156 6.966 28.409v150.801c0 21.382-17.333 38.715-38.715 38.715h-251.998c-10.253 0-19.911-2.525-28.409-6.967 10.257 19.625 30.793 33.029 54.471 33.029h229.276c33.931 0 61.437-27.507 61.437-61.438v-128.079c.001-23.678-13.402-44.214-33.028-54.47z" fill="#e4f6ff"/></g><g fill="#2b4d66"><path d="m387.486 197.355h-60.549v-28.656c0-4.153-3.366-7.519-7.519-7.519s-7.519 3.366-7.519 7.519v28.656h-57.957c-4.153 0-7.519 3.366-7.519 7.519s3.366 7.519 7.519 7.519h100.84c-7.94 15.535-19.375 32.347-32.885 48.224-1.26 1.48-2.534 2.938-3.814 4.384-5.979-7.144-11.032-14.331-14.745-21.053-2.006-3.633-6.582-4.956-10.217-2.945-3.634 2.008-4.953 6.582-2.945 10.217 4.411 7.985 10.456 16.496 17.583 24.853-11.969 12.181-24.359 22.586-35.982 30.113-3.486 2.257-4.482 6.913-2.225 10.398 1.44 2.223 3.854 3.433 6.318 3.433 1.4 0 2.817-.391 4.079-1.208 12.339-7.99 25.412-18.918 37.996-31.654.759.767 1.526 1.53 2.3 2.288 12.583 12.324 26.376 22.719 38.839 29.271 1.116.586 2.312.865 3.491.865 2.704 0 5.317-1.463 6.662-4.023 1.932-3.675.519-8.22-3.157-10.153-11.205-5.89-23.745-15.373-35.313-26.703-.849-.832-1.686-1.671-2.514-2.513 1.715-1.916 3.418-3.853 5.096-5.826 16.215-19.055 29.672-39.528 38.146-57.968h15.99c4.153 0 7.519-3.366 7.519-7.519s-3.365-7.519-7.518-7.519z"/><path d="m233.536 317.521-45.371-120.224c-.026-.069-.052-.136-.08-.204-1.592-3.872-5.324-6.372-9.509-6.372-.003 0-.006 0-.009 0-4.189.003-7.922 2.511-9.509 6.388-.024.057-.046.115-.068.172l-45.786 120.219c-1.478 3.88.47 8.223 4.351 9.702 3.779 1.47 8.227-.431 9.702-4.351l9.559-25.098h63.188l9.464 25.078c1.465 3.885 5.805 5.846 9.689 4.379 3.885-1.465 5.846-5.803 4.379-9.689zm-80.993-34.804 26.012-68.298 25.775 68.298z"/></g></g></svg>